<svg width="46" height="46" viewBox="0 0 46 46" fill="none" xmlns="http://www.w3.org/2000/svg">
<g clip-path="url(#clip0_7932_491963)">
<path d="M33.7789 0L28.6065 12.6838H17.8433L22.6354 0H33.7789Z" fill="#D03E3A"/>
<path d="M29.1009 10.4969H17.463C16.7024 10.4969 16.0748 11.1245 16.0748 11.8851V19.3014H30.4891V11.8851C30.4891 11.1055 29.8615 10.4969 29.1009 10.4969ZM29.4622 13.2163H16.8165V12.6458C16.8165 12.0373 17.3109 11.5238 17.9384 11.5238H28.3402C28.9488 11.5238 29.4622 12.0182 29.4622 12.6458V13.2163Z" fill="#F28F0E"/>
<path d="M12.8421 0L17.8433 12.6838H28.6064L23.7003 0H12.8421Z" fill="#EA5455"/>
<path d="M20.3344 12.6838L14.8388 0H14.2113L19.7069 12.6838H20.3344Z" fill="#FCE0E0"/>
<path d="M22.6734 12.6838L17.1778 0H16.5502L22.0459 12.6838H22.6734Z" fill="#FCE0E0"/>
<path d="M25.2406 12.6838L19.7449 0H19.1174L24.6131 12.6838H25.2406Z" fill="#FCE0E0"/>
<path d="M27.5035 12.6838L22.0079 0H21.3994L26.895 12.6838H27.5035Z" fill="#FCE0E0"/>
<path d="M36.9515 37.353C40.8121 29.6318 37.6825 20.2428 29.9612 16.3821C22.2399 12.5215 12.8509 15.6512 8.9903 23.3724C5.12966 31.0937 8.25933 40.4827 15.9806 44.3433C23.7019 48.204 33.0909 45.0743 36.9515 37.353Z" fill="#FFB10F"/>
<path d="M35.5283 21.0698C37.1067 23.5039 38.0194 26.4134 38.0194 29.532C38.0194 38.1653 31.0215 45.1633 22.3882 45.1633C17.2348 45.1633 12.6709 42.6721 9.81853 38.8309C12.5949 43.1475 17.444 46 22.9587 46C31.592 46 38.5899 39.002 38.5899 30.3687C38.5899 26.8888 37.468 23.675 35.5283 21.0698Z" fill="#FF930F"/>
<path d="M34.3663 36.0603C37.513 29.7668 34.9621 22.114 28.6686 18.9672C22.3751 15.8205 14.7222 18.3714 11.5755 24.6649C8.42875 30.9584 10.9797 38.6112 17.2732 41.758C23.5667 44.9047 31.2195 42.3538 34.3663 36.0603Z" fill="#FFDC01"/>
<path d="M21.4184 39.0401C21.9128 39.4395 22.0459 40.086 22.0459 40.086C22.0459 40.086 21.3803 40.105 20.8669 39.7057C20.3725 39.3064 20.2394 38.6598 20.2394 38.6598C20.2394 38.6598 20.9049 38.6408 21.4184 39.0401Z" fill="#FFF375"/>
<path d="M20.8098 40.067C21.4184 39.8579 22.0459 40.0861 22.0459 40.0861C22.0459 40.0861 21.7036 40.6565 21.0951 40.8657C20.4866 41.0749 19.859 40.8467 19.859 40.8467C19.859 40.8467 20.2013 40.2762 20.8098 40.067Z" fill="#FFF375"/>
<path d="M19.4597 38.5077C19.8971 38.9641 19.9351 39.6296 19.9351 39.6296C19.9351 39.6296 19.2695 39.5536 18.8322 39.0972C18.3948 38.6408 18.3568 37.9752 18.3568 37.9752C18.3568 37.9752 19.0223 38.0513 19.4597 38.5077Z" fill="#FFF375"/>
<path d="M18.7181 39.4395C19.3456 39.3064 19.9351 39.6297 19.9351 39.6297C19.9351 39.6297 19.5167 40.1431 18.8892 40.2762C18.2617 40.4093 17.6722 40.086 17.6722 40.086C17.6722 40.086 18.1096 39.5726 18.7181 39.4395Z" fill="#FFF375"/>
<path d="M17.9384 37.7661C18.2997 38.2795 18.2236 38.9451 18.2236 38.9451C18.2236 38.9451 17.5771 38.774 17.2158 38.2415C16.8545 37.7281 16.9306 37.0625 16.9306 37.0625C16.9306 37.0625 17.5771 37.2336 17.9384 37.7661Z" fill="#FFF375"/>
<path d="M17.0637 38.5647C17.7102 38.5457 18.2427 38.9451 18.2427 38.9451C18.2427 38.9451 17.7482 39.4014 17.1017 39.4205C16.4552 39.4395 15.9227 39.0401 15.9227 39.0401C15.9227 39.0401 16.4171 38.5838 17.0637 38.5647Z" fill="#FFF375"/>
<path d="M16.5122 36.6061C16.7404 37.1956 16.5122 37.8232 16.5122 37.8232C16.5122 37.8232 15.9227 37.4999 15.7135 36.9104C15.4853 36.3209 15.7135 35.6934 15.7135 35.6934C15.7135 35.6934 16.284 36.0166 16.5122 36.6061Z" fill="#FFF375"/>
<path d="M15.4473 37.1766C16.0748 37.3097 16.4932 37.8231 16.4932 37.8231C16.4932 37.8231 15.9037 38.1464 15.2762 38.0133C14.6486 37.8802 14.2303 37.3667 14.2303 37.3667C14.2303 37.3667 14.8198 37.0434 15.4473 37.1766Z" fill="#FFF375"/>
<path d="M15.4283 35.275C15.5043 35.9025 15.124 36.454 15.124 36.454C15.124 36.454 14.6296 35.9976 14.5535 35.37C14.4775 34.7425 14.8578 34.191 14.8578 34.191C14.8578 34.191 15.3522 34.6474 15.4283 35.275Z" fill="#FFF375"/>
<path d="M14.2683 35.5792C14.8388 35.8454 15.124 36.4539 15.124 36.4539C15.124 36.4539 14.4775 36.625 13.888 36.3588C13.3175 36.0926 13.0322 35.4841 13.0322 35.4841C13.0322 35.4841 13.6978 35.3129 14.2683 35.5792Z" fill="#FFF375"/>
<path d="M14.4965 33.5825C14.4394 34.21 13.964 34.6854 13.964 34.6854C13.964 34.6854 13.5837 34.1339 13.6218 33.5254C13.6788 32.8979 14.1542 32.4225 14.1542 32.4225C14.1542 32.4225 14.5535 32.9549 14.4965 33.5825Z" fill="#FFF375"/>
<path d="M13.2985 33.6585C13.8119 34.0389 13.964 34.6854 13.964 34.6854C13.964 34.6854 13.2985 34.7234 12.785 34.3431C12.2716 33.9628 12.1195 33.3162 12.1195 33.3162C12.1195 33.3162 12.785 33.2782 13.2985 33.6585Z" fill="#FFF375"/>
<path d="M14.0211 31.9851C13.869 32.5936 13.3175 32.993 13.3175 32.993C13.3175 32.993 13.0132 32.4035 13.1654 31.795C13.3175 31.1864 13.869 30.7871 13.869 30.7871C13.869 30.7871 14.1732 31.3766 14.0211 31.9851Z" fill="#FFF375"/>
<path d="M12.8231 31.871C13.2604 32.3274 13.3175 32.9929 13.3175 32.9929C13.3175 32.9929 12.6519 32.9169 12.1955 32.4795C11.7582 32.0231 11.7011 31.3575 11.7011 31.3575C11.7011 31.3575 12.3857 31.4146 12.8231 31.871Z" fill="#FFF375"/>
<path d="M13.964 30.1975C13.6598 30.749 13.0323 30.9962 13.0323 30.9962C13.0323 30.9962 12.8991 30.3497 13.1844 29.7982C13.4886 29.2467 14.1162 28.9995 14.1162 28.9995C14.1162 28.9995 14.2683 29.6461 13.964 30.1975Z" fill="#FFF375"/>
<path d="M12.8421 29.7982C13.1654 30.3497 13.0513 30.9963 13.0513 30.9963C13.0513 30.9963 12.4238 30.7681 12.1005 30.2356C11.7772 29.6841 11.8913 29.0376 11.8913 29.0376C11.8913 29.0376 12.5188 29.2658 12.8421 29.7982Z" fill="#FFF375"/>
<path d="M14.2873 28.391C13.869 28.8664 13.2034 28.9615 13.2034 28.9615C13.2034 28.9615 13.2224 28.2959 13.6408 27.8205C14.0591 27.3451 14.7247 27.25 14.7247 27.25C14.7247 27.25 14.7057 27.9156 14.2873 28.391Z" fill="#FFF375"/>
<path d="M13.2795 27.7445C13.4696 28.353 13.1844 28.9615 13.1844 28.9615C13.1844 28.9615 12.6139 28.6002 12.4427 27.9917C12.2526 27.3832 12.5378 26.7747 12.5378 26.7747C12.5378 26.7747 13.1083 27.155 13.2795 27.7445Z" fill="#FFF375"/>
<path d="M14.9529 26.9079C14.4395 27.2692 13.7549 27.2121 13.7549 27.2121C13.7549 27.2121 13.926 26.5656 14.4394 26.2043C14.9529 25.843 15.6375 25.9 15.6375 25.9C15.6375 25.9 15.4663 26.5466 14.9529 26.9079Z" fill="#FFF375"/>
<path d="M14.1162 26.0522C14.1542 26.6797 13.7549 27.2121 13.7549 27.2121C13.7549 27.2121 13.2985 26.7367 13.2604 26.1092C13.2224 25.4817 13.6218 24.9492 13.6218 24.9492C13.6218 24.9492 14.0781 25.4246 14.1162 26.0522Z" fill="#FFF375"/>
<path d="M15.7706 25.5577C15.2001 25.843 14.5345 25.6718 14.5345 25.6718C14.5345 25.6718 14.8007 25.0633 15.3712 24.7781C15.9417 24.4928 16.6073 24.664 16.6073 24.664C16.6073 24.664 16.3411 25.2915 15.7706 25.5577Z" fill="#FFF375"/>
<path d="M15.086 24.5878C15.029 25.2154 14.5345 25.6717 14.5345 25.6717C14.5345 25.6717 14.1542 25.1203 14.2112 24.4927C14.2683 23.8652 14.7627 23.4088 14.7627 23.4088C14.7627 23.4088 15.1431 23.9793 15.086 24.5878Z" fill="#FFF375"/>
<path d="M24.8793 38.9641C24.3849 39.3634 24.2518 40.01 24.2518 40.01C24.2518 40.01 24.9173 40.029 25.4308 39.6296C25.9252 39.2303 26.0583 38.5838 26.0583 38.5838C26.0583 38.5838 25.3737 38.5647 24.8793 38.9641Z" fill="#FFF375"/>
<path d="M25.4688 39.9719C24.8603 39.7628 24.2328 39.991 24.2328 39.991C24.2328 39.991 24.5751 40.5614 25.1836 40.7706C25.7921 40.9798 26.4196 40.7516 26.4196 40.7516C26.4196 40.7516 26.0773 40.1811 25.4688 39.9719Z" fill="#FFF375"/>
<path d="M26.5717 38.5077C26.1343 38.9641 26.0963 39.6296 26.0963 39.6296C26.0963 39.6296 26.7619 39.5536 27.1993 39.0972C27.6366 38.6408 27.6747 37.9752 27.6747 37.9752C27.6747 37.9752 27.0091 38.0513 26.5717 38.5077Z" fill="#FFF375"/>
<path d="M27.3133 39.4394C26.6858 39.3063 26.0963 39.6295 26.0963 39.6295C26.0963 39.6295 26.5147 40.143 27.1422 40.2761C27.7697 40.4092 28.3592 40.0859 28.3592 40.0859C28.3592 40.0859 27.9409 39.5725 27.3133 39.4394Z" fill="#FFF375"/>
<path d="M28.093 37.6899C27.7317 38.2034 27.8078 38.8689 27.8078 38.8689C27.8078 38.8689 28.4543 38.6978 28.8156 38.1653C29.1769 37.6519 29.1009 36.9863 29.1009 36.9863C29.1009 36.9863 28.4543 37.1765 28.093 37.6899Z" fill="#FFF375"/>
<path d="M28.9677 38.4886C28.3212 38.4696 27.7888 38.8689 27.7888 38.8689C27.7888 38.8689 28.2832 39.3253 28.9297 39.3443C29.5763 39.3633 30.1087 38.964 30.1087 38.964C30.1087 38.964 29.6143 38.5266 28.9677 38.4886Z" fill="#FFF375"/>
<path d="M29.4812 36.568C29.253 37.1575 29.4812 37.7851 29.4812 37.7851C29.4812 37.7851 30.0707 37.4618 30.2799 36.8723C30.5081 36.2828 30.2799 35.6553 30.2799 35.6553C30.2799 35.6553 29.7094 35.9785 29.4812 36.568Z" fill="#FFF375"/>
<path d="M30.5271 37.1385C29.8996 37.2716 29.4812 37.785 29.4812 37.785C29.4812 37.785 30.0707 38.1083 30.6982 37.9752C31.3258 37.8421 31.7441 37.3286 31.7441 37.3286C31.7441 37.3286 31.1546 37.0054 30.5271 37.1385Z" fill="#FFF375"/>
<path d="M30.6222 35.1418C30.5461 35.7693 30.9264 36.3208 30.9264 36.3208C30.9264 36.3208 31.4209 35.8644 31.4969 35.2369C31.573 34.6093 31.1927 34.0579 31.1927 34.0579C31.1927 34.0579 30.6982 34.5142 30.6222 35.1418Z" fill="#FFF375"/>
<path d="M31.7822 35.446C31.2117 35.7122 30.9264 36.3207 30.9264 36.3207C30.9264 36.3207 31.573 36.4919 32.1625 36.2256C32.733 35.9594 33.0182 35.3509 33.0182 35.3509C33.0182 35.3509 32.3526 35.1798 31.7822 35.446Z" fill="#FFF375"/>
<path d="M31.4399 33.5634C31.4969 34.191 31.9723 34.6664 31.9723 34.6664C31.9723 34.6664 32.3527 34.1149 32.3146 33.5064C32.2576 32.8788 31.7822 32.4034 31.7822 32.4034C31.7822 32.4034 31.3828 32.9359 31.4399 33.5634Z" fill="#FFF375"/>
<path d="M32.6379 33.6205C32.1244 34.0009 31.9723 34.6474 31.9723 34.6474C31.9723 34.6474 32.6379 34.6854 33.1513 34.3051C33.6647 33.9248 33.8169 33.2782 33.8169 33.2782C33.8169 33.2782 33.1513 33.2592 32.6379 33.6205Z" fill="#FFF375"/>
<path d="M31.9153 31.947C32.0674 32.5556 32.6189 32.9549 32.6189 32.9549C32.6189 32.9549 32.9231 32.3654 32.771 31.7569C32.6189 31.1484 32.0674 30.749 32.0674 30.749C32.0674 30.749 31.7631 31.3385 31.9153 31.947Z" fill="#FFF375"/>
<path d="M33.1133 31.833C32.6759 32.2894 32.6188 32.955 32.6188 32.955C32.6188 32.955 33.2844 32.8789 33.7408 32.4415C34.1782 31.9851 34.2352 31.3196 34.2352 31.3196C34.2352 31.3196 33.5506 31.3766 33.1133 31.833Z" fill="#FFF375"/>
<path d="M31.9533 30.2166C32.2576 30.768 32.8851 31.0152 32.8851 31.0152C32.8851 31.0152 33.0182 30.3687 32.733 29.8172C32.4287 29.2658 31.8012 29.0186 31.8012 29.0186C31.8012 29.0186 31.649 29.6651 31.9533 30.2166Z" fill="#FFF375"/>
<path d="M33.0943 29.8363C32.771 30.3878 32.8851 31.0343 32.8851 31.0343C32.8851 31.0343 33.5126 30.8062 33.8359 30.2737C34.1592 29.7222 34.0451 29.0757 34.0451 29.0757C34.0451 29.0757 33.3985 29.2849 33.0943 29.8363Z" fill="#FFF375"/>
<path d="M31.63 28.41C32.0484 28.8854 32.7139 28.9805 32.7139 28.9805C32.7139 28.9805 32.6949 28.3149 32.2766 27.8395C31.8582 27.3641 31.1927 27.269 31.1927 27.269C31.1927 27.269 31.1927 27.9536 31.63 28.41Z" fill="#FFF375"/>
<path d="M32.6189 27.7635C32.4287 28.372 32.7139 28.9806 32.7139 28.9806C32.7139 28.9806 33.2844 28.6193 33.4556 28.0107C33.6457 27.4022 33.3605 26.7937 33.3605 26.7937C33.3605 26.7937 32.809 27.174 32.6189 27.7635Z" fill="#FFF375"/>
<path d="M30.9835 26.9649C31.4969 27.3262 32.1815 27.2691 32.1815 27.2691C32.1815 27.2691 32.0103 26.6226 31.4969 26.2613C30.9835 25.9 30.2989 25.957 30.2989 25.957C30.2989 25.957 30.4701 26.6036 30.9835 26.9649Z" fill="#FFF375"/>
<path d="M31.8202 26.1092C31.7821 26.7367 32.1815 27.2691 32.1815 27.2691C32.1815 27.2691 32.6379 26.7937 32.6759 26.1662C32.7139 25.5387 32.3146 25.0062 32.3146 25.0062C32.3146 25.0062 31.8582 25.4816 31.8202 26.1092Z" fill="#FFF375"/>
<path d="M30.1277 25.6338C30.6982 25.919 31.3638 25.7479 31.3638 25.7479C31.3638 25.7479 31.0975 25.1393 30.5271 24.8541C29.9566 24.5689 29.291 24.74 29.291 24.74C29.291 24.74 29.5573 25.3485 30.1277 25.6338Z" fill="#FFF375"/>
<path d="M30.8123 24.6639C30.8694 25.2914 31.3638 25.7478 31.3638 25.7478C31.3638 25.7478 31.7441 25.1963 31.6871 24.5688C31.63 23.9412 31.1356 23.4849 31.1356 23.4849C31.1356 23.4849 30.7363 24.0363 30.8123 24.6639Z" fill="#FFF375"/>
<path d="M29.6714 23.7131C29.6523 23.7322 29.6143 23.7702 29.5763 23.7892C29.5573 23.7892 29.5573 23.8082 29.5382 23.8082C31.5349 25.5197 32.79 27.9727 32.79 30.7111C32.79 35.8454 28.3783 40.01 22.9397 40.01C17.501 40.01 13.0893 35.8454 13.0893 30.7111C13.0893 28.0868 14.2493 25.7288 16.0939 24.0364C16.0368 24.0174 15.9797 23.9984 15.9417 23.9794C14.0972 25.6908 12.9372 28.0868 12.9372 30.7111C12.9372 35.9215 17.425 40.1621 22.9397 40.1621C28.4543 40.1621 32.9421 35.9215 32.9421 30.7111C32.9612 27.9347 31.6871 25.4436 29.6714 23.7131Z" fill="#FFF375"/>
<path d="M17.0827 24.3787C16.4552 24.5118 15.8657 24.2076 15.8657 24.2076C15.8657 24.2076 16.284 23.6751 16.9115 23.542C17.5391 23.4089 18.1286 23.7131 18.1286 23.7131C18.1286 23.7131 17.7102 24.2456 17.0827 24.3787Z" fill="#FFF375"/>
<path d="M16.6644 23.2757C16.4552 23.8652 15.8657 24.2075 15.8657 24.2075C15.8657 24.2075 15.6375 23.58 15.8466 22.9905C16.0558 22.401 16.6453 22.0587 16.6453 22.0587C16.6453 22.0587 16.8735 22.6862 16.6644 23.2757Z" fill="#FFF375"/>
<path d="M28.8727 24.3787C29.5002 24.5118 30.0897 24.2076 30.0897 24.2076C30.0897 24.2076 29.6714 23.6751 29.0438 23.542C28.4163 23.4089 27.8268 23.7131 27.8268 23.7131C27.8268 23.7131 28.2451 24.2456 28.8727 24.3787Z" fill="#FFF375"/>
<path d="M29.2911 23.2757C29.5002 23.8652 30.0897 24.2075 30.0897 24.2075C30.0897 24.2075 30.3179 23.58 30.1087 22.9905C29.8996 22.401 29.3101 22.0587 29.3101 22.0587C29.3101 22.0587 29.0819 22.6862 29.2911 23.2757Z" fill="#FFF375"/>
<path d="M22.518 35V25.9L23.316 26.726H20.446V25.2H24.338V35H22.518Z" fill="#FFFAC9"/>
</g>
<defs>
<clipPath id="clip0_7932_491963">
<rect width="46" height="46" fill="white"/>
</clipPath>
</defs>
</svg>
